<svg width="118" height="90" viewBox="0 0 118 90" fill="none" xmlns="http://www.w3.org/2000/svg">
<path opacity="0.15" d="M78.7146 89.98H31.6084L0 56.3026L39.3573 33.4381L78.7146 89.98Z" fill="black"/>
<path d="M78.3983 42.8607V89.98L116.899 67.8074V22.0784L78.3983 42.8607Z" fill="#F9E2D6"/>
<path d="M78.3983 42.8607V89.98L38.303 67.8074V22.0784L78.3983 42.8607Z" fill="#DEBFC8"/>
<path d="M38.303 22.3552L78.3983 0.736023L117.011 22.3552L78.3983 47.0186L38.303 22.3552Z" fill="#FFEFE8"/>
<path d="M40.1018 22.4936L78.3982 2.11975L115.766 22.4936L78.3982 45.648L40.1018 22.4936Z" fill="#FAD642"/>
<path d="M78.3983 2.11975V45.648L115.766 22.4936L78.3983 2.11975Z" fill="#FFC134"/>
<path d="M78.3983 2.11975V45.648L67.6777 39.1708L78.3983 2.11975Z" fill="#F1B233"/>
<path d="M42.1247 12.8074L32.8932 14.4745L56.1795 46.0697L69.483 43.9875L42.1247 12.8074Z" fill="#FFEEE8"/>
<path d="M69.483 43.9875L57.0097 86.3955H48.6941L45.3666 59.7884L56.1794 46.0696L69.483 43.9875Z" fill="#F8E3D8"/>
<path d="M32.8933 14.4745L20.0048 56.0457L48.6941 86.3956L60.5152 45.648L32.8933 14.4745Z" fill="#DEBFC8"/>
<path d="M94.8515 36.5088V80.5048L100.953 76.9862V32.608L94.8515 36.5088Z" fill="#B465FF"/>
<path d="M55.3823 63.34L63.2432 65.1915L61.161 72.2815L53.399 70.1796L24.9336 40.1592L27.2728 32.608L55.3823 63.34Z" fill="#B465FF"/>
<path d="M38.415 49.0283C38.415 49.0283 33.1437 30.6971 38.8236 30.8421C44.5035 30.9871 43.5744 43.5856 43.5744 43.5856C43.5744 43.5856 57.3722 43.0387 55.5008 46.2938C53.6295 49.5488 47.3368 51.1369 38.415 49.0283Z" fill="#A547FE"/>
<path d="M38.415 49.0283C38.415 49.0283 22.2517 52.8368 26.3831 56.026C30.5146 59.2152 34.9491 56.5531 34.9491 56.5531C34.9491 56.5531 30.7518 67.5307 36.1747 66.4369C41.5976 65.3431 38.415 49.0283 38.415 49.0283Z" fill="#A547FE"/>
</svg>
