<svg width="45" height="47" viewBox="0 0 45 47" fill="none" xmlns="http://www.w3.org/2000/svg">
<g clip-path="url(#clip0_585_48)">
<path d="M22.5 42.0313L19.7813 39.5563C10.125 30.8 3.75 25.0062 3.75 17.9375C3.75 12.1438 8.2875 7.625 14.0625 7.625C17.325 7.625 20.4562 9.14375 22.5 11.525C24.5438 9.14375 27.675 7.625 30.9375 7.625C36.7125 7.625 41.25 12.1438 41.25 17.9375C41.25 25.0062 34.875 30.8 25.2187 39.5563L22.5 42.0313Z" fill="#860630"/>
<path fill-rule="evenodd" clip-rule="evenodd" d="M22.5 42.0312L25.2188 39.5563C34.875 30.8 41.25 25.0062 41.25 17.9375C41.25 12.1438 36.7125 7.625 30.9375 7.625C27.675 7.625 24.5438 9.14375 22.5 11.525V42.0312Z" fill="#860630"/>
</g>
<g clip-path="url(#clip1_585_48)">
<path d="M22.5 40.0313L19.7813 37.5563C10.125 28.8 3.75 23.0062 3.75 15.9375C3.75 10.1438 8.2875 5.625 14.0625 5.625C17.325 5.625 20.4562 7.14375 22.5 9.525C24.5438 7.14375 27.675 5.625 30.9375 5.625C36.7125 5.625 41.25 10.1438 41.25 15.9375C41.25 23.0062 34.875 28.8 25.2187 37.5563L22.5 40.0313Z" fill="#FC0757"/>
<path d="M31 11.0012C34.7251 10.9422 36 13.0007 36 16" stroke="white" stroke-width="2" stroke-linecap="round"/>
</g>
<defs>
<clipPath id="clip0_585_48">
<rect width="45" height="45" fill="white" transform="translate(0 2)"/>
</clipPath>
<clipPath id="clip1_585_48">
<rect width="45" height="45" fill="white"/>
</clipPath>
</defs>
</svg>
