<svg width="45" height="45" viewBox="0 0 45 45" fill="none" xmlns="http://www.w3.org/2000/svg">
<g clip-path="url(#clip0_10_1134)">
<path d="M22.75 42.4063L20.0313 39.9313C10.375 31.175 4 25.3812 4 18.3125C4 12.5188 8.5375 8 14.3125 8C17.575 8 20.7062 9.51875 22.75 11.9C24.7938 9.51875 27.925 8 31.1875 8C36.9625 8 41.5 12.5188 41.5 18.3125C41.5 25.3812 35.125 31.175 25.4687 39.9313L22.75 42.4063Z" fill="#8E8E8E"/>
<path d="M22.75 39.4062L20.0312 36.9313C10.375 28.175 4 22.3812 4 15.3125C4 9.51875 8.5375 5 14.3125 5C17.575 5 20.7062 6.51875 22.75 8.9C24.7938 6.51875 27.925 5 31.1875 5C36.9625 5 41.5 9.51875 41.5 15.3125C41.5 22.3812 35.125 28.175 25.4688 36.9313L22.75 39.4062Z" fill="#C4C4C4"/>
<path d="M31 11.0012C34.7251 10.9422 36 13.0007 36 16" stroke="white" stroke-width="2" stroke-linecap="round"/>
</g>
<defs>
<clipPath id="clip0_10_1134">
<rect width="45" height="45" fill="white"/>
</clipPath>
</defs>
</svg>
