<svg width="70" height="67" viewBox="0 0 70 67" fill="none" xmlns="http://www.w3.org/2000/svg">
<path fill-rule="evenodd" clip-rule="evenodd" d="M22.4986 45.8832C22.4986 49.5879 25.668 52.3658 30.333 52.3658C35.1723 52.3658 38.2526 49.5879 38.2526 45.8832C38.1648 42.0362 35.0852 39.4001 30.333 39.4001C25.7558 39.4001 22.4986 42.0362 22.4986 45.8832ZM36.4923 31.9873C36.4039 28.7817 37.8123 26.0035 40.9818 23.0821C41.1051 22.9718 41.2296 22.8606 41.3551 22.7487C44.6312 19.8249 48.5496 16.3281 48.5496 11.1139C48.5496 5.20091 43.181 3.05176e-05 31.564 3.05176e-05C25.3156 3.05176e-05 20.1239 1.42497 16.866 2.92061L19.8585 10.6865C22.1475 9.40346 25.668 8.54944 28.5721 8.54944C32.9718 8.61998 34.9967 10.3302 34.9967 12.823C34.9967 15.1744 32.7078 17.5252 29.8922 20.3036C25.9321 24.0794 24.4351 27.7837 24.6991 31.4178L24.7876 33.2691H36.4923V31.9873Z" fill="#7754FD"/>
<path fill-rule="evenodd" clip-rule="evenodd" d="M45.7217 57.2579C44.8615 59.1388 45.8256 61.2852 48.1941 62.3684C50.6511 63.4921 52.8601 62.7969 53.7203 60.916C54.569 58.9425 53.6176 56.889 51.2048 55.7855C48.8809 54.7226 46.615 55.3047 45.7217 57.2579ZM56.0533 53.4521C56.7527 51.804 58.1129 50.7205 60.4005 49.9732C60.4887 49.9458 60.5777 49.9183 60.6674 49.8906C63.0097 49.1669 65.8111 48.3014 67.0218 45.654C68.3949 42.6519 66.8768 38.7647 60.9787 36.0672C57.8062 34.6163 54.8394 34.1342 52.8381 34.1371L52.5541 38.7749C54.0142 38.6549 56 39.0388 57.4744 39.7132C59.6918 40.7706 60.3228 42.1091 59.744 43.3748C59.198 44.5686 57.49 45.2306 55.4153 45.9875C52.5279 46.9849 50.9077 48.5181 50.1979 50.4245L49.8129 51.385L55.7557 54.1029L56.0533 53.4521Z" fill="#7754FD"/>
<path fill-rule="evenodd" clip-rule="evenodd" d="M13.1814 57.9918C14.0231 59.4498 15.9017 59.823 17.7376 58.763C19.6421 57.6634 20.2232 55.8702 19.3814 54.4122C18.4728 52.9181 16.6618 52.5804 14.7915 53.6602C12.9901 54.7003 12.3072 56.4778 13.1814 57.9918ZM15.5312 49.3434C14.7681 48.1019 14.6911 46.6885 15.2747 44.8185C15.2981 44.7471 15.3219 44.6751 15.3458 44.6025C15.9708 42.7074 16.7183 40.4409 15.5336 38.3888C14.19 36.0617 10.8954 35.2347 6.32349 37.8743C3.86437 39.2941 2.14492 41.0346 1.20262 42.3634L4.14492 44.7398C4.75423 43.7147 5.94569 42.5787 7.08861 41.9188C8.83615 40.9469 10.0217 41.1599 10.5881 42.1409C11.1224 43.0663 10.7557 44.5116 10.2789 46.2448C9.57832 48.6306 9.83088 50.4286 10.7605 51.7989L11.216 52.5074L15.8225 49.8478L15.5312 49.3434Z" fill="#7754FD"/>
</svg>
