<svg width="43" height="43" viewBox="0 0 43 43" fill="none" xmlns="http://www.w3.org/2000/svg">
<g clip-path="url(#clip0_34_852)">
<path d="M22.3242 16H16.9994V23.9278H22.3242V16Z" fill="#C1C1BF"/>
<path d="M10.8875 1H29.4871C29.9753 1 30.4082 1.35643 30.4082 1.84455V10.8567C30.4082 11.035 30.3355 11.2093 30.2347 11.3564L25.1474 18.7609C24.9827 19.0014 24.7005 19.1406 24.4093 19.1406H23.8479L20.0949 18.4216L16.5268 19.1406H15.9655C15.6742 19.1406 15.4014 19.0014 15.2367 18.7609L10.1568 11.3542C10.0557 11.2071 10 11.035 10 10.8567V1.84455C10 1.35643 10.3997 1 10.8875 1Z" fill="#D351B9"/>
<path d="M20.0461 43.0914C13.9457 43.0914 9.00038 38.1461 9.00038 32.0457C9.00038 25.9453 13.9457 21 20.0461 21C26.1465 21 31.0918 25.9453 31.0918 32.0457C31.0918 38.1461 26.1465 43.0914 20.0461 43.0914Z" fill="#E4C00B"/>
<path d="M23.3477 15.917H18.0228V23.8448H23.3477V15.917Z" fill="#E5E4DF"/>
<path d="M11.3855 0.419922H29.9852C30.4733 0.419922 30.9062 0.776352 30.9062 1.26447V10.2767C30.9062 10.455 30.8335 10.6292 30.7327 10.7763L25.6455 18.1809C25.4808 18.4213 25.1986 18.5605 24.9073 18.5605H24.346L20.593 17.8416L17.0248 18.5605H16.4635C16.1723 18.5605 15.8994 18.4213 15.7347 18.1809L10.6548 10.7741C10.5537 10.627 10.498 10.455 10.498 10.2767V1.26447C10.498 0.776352 10.8977 0.419922 11.3855 0.419922Z" fill="#F35DD5"/>
<path d="M24.3555 0.419922H17.0488V18.5605H24.3555V0.419922Z" fill="#4CDAFE"/>
<path d="M20.6857 42.3867C14.5854 42.3867 9.64003 37.4413 9.64003 31.341C9.64003 25.2406 14.5854 20.2953 20.6857 20.2953C26.7861 20.2953 31.7314 25.2406 31.7314 31.341C31.7314 37.4413 26.7861 42.3867 20.6857 42.3867Z" fill="#FFD60D"/>
<path d="M33.6245 25.2088C31.5461 25.7352 29.9101 27.3713 29.3836 29.4495C29.333 29.6494 29.0757 29.6494 29.0251 29.4495C28.4986 27.3713 26.8626 25.7352 24.7842 25.2088C24.5843 25.1582 24.5843 24.9009 24.7842 24.8503C26.8626 24.3238 28.4986 22.6876 29.0251 20.6093C29.0757 20.4094 29.333 20.4094 29.3836 20.6093C29.9101 22.6876 31.5461 24.3238 33.6245 24.8503C33.8244 24.9009 33.8244 25.1582 33.6245 25.2088Z" fill="#4CDAFE"/>
</g>
<defs>
<clipPath id="clip0_34_852">
<rect width="43" height="43" fill="white" transform="matrix(-1 0 0 1 43 0)"/>
</clipPath>
</defs>
</svg>
