<svg width="88" height="88" viewBox="0 0 88 88" fill="none" xmlns="http://www.w3.org/2000/svg">
<g filter="url(#filter0_d_10_383)">
<circle cx="43.6888" cy="39.6888" r="19.845" fill="white"/>
<circle cx="43.8438" cy="39.8438" r="17" fill="#D6D6D6"/>
<mask id="path-3-inside-1_10_383" fill="white">
<path fill-rule="evenodd" clip-rule="evenodd" d="M43.9048 27.3437C42.0919 27.2963 40.5839 28.7274 40.5365 30.5403L40.3846 36.3458L34.5779 36.4338C32.7646 36.4612 31.3169 37.9535 31.3444 39.7667C31.3719 41.58 32.8641 43.0277 34.6774 43.0002L40.2128 42.9163L40.061 48.7238C40.0136 50.5366 41.4447 52.0447 43.2576 52.0921C45.0705 52.1395 46.5785 50.7083 46.6259 48.8954L46.7849 42.8167L52.8649 42.7246C54.6782 42.6971 56.1259 41.2049 56.0984 39.3916C56.0709 37.5784 54.5787 36.1307 52.7654 36.1582L46.9567 36.2462L47.1014 30.712C47.1488 28.8991 45.7176 27.3911 43.9048 27.3437Z"/>
</mask>
<path fill-rule="evenodd" clip-rule="evenodd" d="M43.9048 27.3437C42.0919 27.2963 40.5839 28.7274 40.5365 30.5403L40.3846 36.3458L34.5779 36.4338C32.7646 36.4612 31.3169 37.9535 31.3444 39.7667C31.3719 41.58 32.8641 43.0277 34.6774 43.0002L40.2128 42.9163L40.061 48.7238C40.0136 50.5366 41.4447 52.0447 43.2576 52.0921C45.0705 52.1395 46.5785 50.7083 46.6259 48.8954L46.7849 42.8167L52.8649 42.7246C54.6782 42.6971 56.1259 41.2049 56.0984 39.3916C56.0709 37.5784 54.5787 36.1307 52.7654 36.1582L46.9567 36.2462L47.1014 30.712C47.1488 28.8991 45.7176 27.3911 43.9048 27.3437Z" fill="white"/>
<path d="M40.5365 30.5403L41.5361 30.5664L40.5365 30.5403ZM43.9048 27.3437L43.8786 28.3433L43.9048 27.3437ZM40.3846 36.3458L40.3998 37.3457L41.3592 37.3311L41.3843 36.3719L40.3846 36.3458ZM34.5779 36.4338L34.593 37.4336L34.5779 36.4338ZM31.3444 39.7667L32.3443 39.7516L32.3443 39.7516L31.3444 39.7667ZM34.6774 43.0002L34.6622 42.0003L34.6622 42.0003L34.6774 43.0002ZM40.2128 42.9163L41.2125 42.9425L41.2397 41.9006L40.1977 41.9164L40.2128 42.9163ZM40.061 48.7238L39.0613 48.6976L39.0613 48.6976L40.061 48.7238ZM43.2576 52.0921L43.2837 51.0924L43.2837 51.0924L43.2576 52.0921ZM46.6259 48.8954L45.6262 48.8693L45.6262 48.8693L46.6259 48.8954ZM46.7849 42.8167L46.7697 41.8169L45.8103 41.8314L45.7852 42.7906L46.7849 42.8167ZM52.8649 42.7246L52.8498 41.7247L52.8649 42.7246ZM56.0984 39.3916L55.0985 39.4068L55.0985 39.4068L56.0984 39.3916ZM52.7654 36.1582L52.7806 37.1581L52.7654 36.1582ZM46.9567 36.2462L45.957 36.2201L45.9298 37.2619L46.9718 37.2461L46.9567 36.2462ZM47.1014 30.712L46.1017 30.6858L47.1014 30.712ZM41.5361 30.5664C41.5691 29.3057 42.6179 28.3104 43.8786 28.3433L43.9309 26.344C41.566 26.2822 39.5986 28.1492 39.5368 30.5142L41.5361 30.5664ZM41.3843 36.3719L41.5361 30.5664L39.5368 30.5142L39.385 36.3196L41.3843 36.3719ZM40.3695 35.3459L34.5627 35.4339L34.593 37.4336L40.3998 37.3457L40.3695 35.3459ZM34.5627 35.4339C32.1972 35.4697 30.3087 37.4164 30.3445 39.7819L32.3443 39.7516C32.3252 38.4905 33.332 37.4528 34.593 37.4336L34.5627 35.4339ZM30.3445 39.7819C30.3803 42.1474 32.327 44.0359 34.6925 44.0001L34.6622 42.0003C33.4012 42.0194 32.3634 41.0126 32.3443 39.7516L30.3445 39.7819ZM34.6925 44.0001L40.228 43.9162L40.1977 41.9164L34.6622 42.0003L34.6925 44.0001ZM41.0606 48.7499L41.2125 42.9425L39.2132 42.8902L39.0613 48.6976L41.0606 48.7499ZM43.2837 51.0924C42.023 51.0594 41.0276 50.0107 41.0606 48.7499L39.0613 48.6976C38.9995 51.0626 40.8665 53.0299 43.2315 53.0917L43.2837 51.0924ZM45.6262 48.8693C45.5933 50.1301 44.5445 51.1254 43.2837 51.0924L43.2315 53.0917C45.5964 53.1536 47.5637 51.2865 47.6256 48.9216L45.6262 48.8693ZM45.7852 42.7906L45.6262 48.8693L47.6256 48.9216L47.7845 42.8429L45.7852 42.7906ZM46.8 43.8166L52.8801 43.7245L52.8498 41.7247L46.7697 41.8169L46.8 43.8166ZM52.8801 43.7245C55.2456 43.6887 57.1341 41.742 57.0983 39.3765L55.0985 39.4068C55.1176 40.6678 54.1108 41.7056 52.8498 41.7247L52.8801 43.7245ZM57.0983 39.3765C57.0625 37.011 55.1158 35.1225 52.7503 35.1583L52.7806 37.1581C54.0416 37.139 55.0794 38.1457 55.0985 39.4068L57.0983 39.3765ZM52.7503 35.1583L46.9415 35.2463L46.9718 37.2461L52.7806 37.1581L52.7503 35.1583ZM46.1017 30.6858L45.957 36.2201L47.9563 36.2723L48.1011 30.7381L46.1017 30.6858ZM43.8786 28.3433C45.1394 28.3763 46.1347 29.4251 46.1017 30.6858L48.1011 30.7381C48.1629 28.3732 46.2959 26.4059 43.9309 26.344L43.8786 28.3433Z" fill="#D0D0D0" mask="url(#path-3-inside-1_10_383)"/>
</g>
<defs>
<filter id="filter0_d_10_383" x="0" y="0" width="87.3774" height="87.3776" filterUnits="userSpaceOnUse" color-interpolation-filters="sRGB">
<feFlood flood-opacity="0" result="BackgroundImageFix"/>
<feColorMatrix in="SourceAlpha" type="matrix" values="0 0 0 0 0 0 0 0 0 0 0 0 0 0 0 0 0 0 127 0" result="hardAlpha"/>
<feOffset dy="4"/>
<feGaussianBlur stdDeviation="2"/>
<feComposite in2="hardAlpha" operator="out"/>
<feColorMatrix type="matrix" values="0 0 0 0 0 0 0 0 0 0 0 0 0 0 0 0 0 0 0.25 0"/>
<feBlend mode="normal" in2="BackgroundImageFix" result="effect1_dropShadow_10_383"/>
<feBlend mode="normal" in="SourceGraphic" in2="effect1_dropShadow_10_383" result="shape"/>
</filter>
</defs>
</svg>
