<svg width="56" height="56" viewBox="0 0 56 56" fill="none" xmlns="http://www.w3.org/2000/svg">
<path d="M28 54.25C42.4975 54.25 54.25 42.4975 54.25 28C54.25 13.5025 42.4975 1.75 28 1.75C13.5025 1.75 1.75 13.5025 1.75 28C1.75 42.4975 13.5025 54.25 28 54.25Z" fill="#FFD338"/>
<path d="M35.525 40.6C30.8 38.4125 25.2 38.4125 20.475 40.6C19.3375 41.125 20.7375 44.275 21.9625 43.6625C25.1125 42.175 29.75 41.65 34.125 43.6625C35.2625 44.1875 36.75 41.2125 35.525 40.6Z" fill="#574322"/>
<path d="M47.25 27.125C47.25 31.5 43.75 35 39.375 35C35 35 31.5 31.5 31.5 27.125C31.5 22.75 35 19.25 39.375 19.25C43.75 19.25 47.25 22.75 47.25 27.125Z" fill="white"/>
<path d="M39.375 32.375C42.2745 32.375 44.625 30.0245 44.625 27.125C44.625 24.2255 42.2745 21.875 39.375 21.875C36.4755 21.875 34.125 24.2255 34.125 27.125C34.125 30.0245 36.4755 32.375 39.375 32.375Z" fill="#574322"/>
<path d="M40.7752 33.8625C42.1283 33.8625 43.2252 32.6089 43.2252 31.0625C43.2252 29.5161 42.1283 28.2625 40.7752 28.2625C39.4221 28.2625 38.3252 29.5161 38.3252 31.0625C38.3252 32.6089 39.4221 33.8625 40.7752 33.8625Z" fill="white"/>
<path d="M37.4498 28.7875C38.223 28.7875 38.8498 28.0432 38.8498 27.125C38.8498 26.2068 38.223 25.4625 37.4498 25.4625C36.6766 25.4625 36.0498 26.2068 36.0498 27.125C36.0498 28.0432 36.6766 28.7875 37.4498 28.7875Z" fill="white"/>
<path d="M24.5 27.125C24.5 31.5 21 35 16.625 35C12.25 35 8.75 31.5 8.75 27.125C8.75 22.75 12.25 19.25 16.625 19.25C21 19.25 24.5 22.75 24.5 27.125Z" fill="white"/>
<path d="M16.625 32.375C19.5245 32.375 21.875 30.0245 21.875 27.125C21.875 24.2255 19.5245 21.875 16.625 21.875C13.7255 21.875 11.375 24.2255 11.375 27.125C11.375 30.0245 13.7255 32.375 16.625 32.375Z" fill="#574322"/>
<path d="M18.0252 33.8625C19.3783 33.8625 20.4752 32.6089 20.4752 31.0625C20.4752 29.5161 19.3783 28.2625 18.0252 28.2625C16.6721 28.2625 15.5752 29.5161 15.5752 31.0625C15.5752 32.6089 16.6721 33.8625 18.0252 33.8625Z" fill="white"/>
<path d="M14.6998 28.7875C15.473 28.7875 16.0998 28.0432 16.0998 27.125C16.0998 26.2068 15.473 25.4625 14.6998 25.4625C13.9266 25.4625 13.2998 26.2068 13.2998 27.125C13.2998 28.0432 13.9266 28.7875 14.6998 28.7875Z" fill="white"/>
<path d="M46.5499 18.1125C43.7499 15.75 39.9874 14.7 36.3124 15.4C35.7874 15.4875 35.3499 13.65 35.9624 13.475C40.1624 12.6875 44.5374 13.9125 47.7749 16.625C48.2999 17.0625 46.8999 18.4625 46.5499 18.1125ZM19.6874 15.225C16.0124 14.6125 12.2499 15.575 9.44986 17.9375C9.09986 18.2875 7.69986 16.8875 8.22486 16.45C11.4624 13.65 15.8374 12.5125 20.0374 13.3C20.6499 13.475 20.2124 15.3125 19.6874 15.225Z" fill="#6A561B"/>
</svg>
